ffmpeg started on 2025-05-26 at 19:23:56
Report written to "D:\Convert\FFMetrics\reports\psnr_report-6.txt"
Log level: 32
Command line:
ffmpeg -hide_banner -nostdin -i "G:\\\xc0\xed\xe8\xec\xe5\\\xce\xed\xe3\xee\xe8\xed\xe3\xe8\\!_34_\xc2\xe5\xf1\xed\xe0_2024\\DreamCast\\\xcc\xee\xe9 \xf1\xee\xf1\xe5\xe4-\xb8\xea\xe0\xe9\\[DC] Tonari no Youkai-san - 11_Telegram_HEVC.mkv" -i "G:\\\xc0\xed\xe8\xec\xe5\\\xce\xed\xe3\xee\xe8\xed\xe3\xe8\\!_34_\xc2\xe5\xf1\xed\xe0_2024\\DreamCast\\\xcc\xee\xe9 \xf1\xee\xf1\xe5\xe4-\xb8\xea\xe0\xe9\\[DC] Tonari no Youkai-san - 11_Telegram.mp4" -lavfi "[0:v]settb=AVTB,setpts=PTS-STARTPTS,format=pix_fmts=yuv420p10,fps=24000/1001,scale=1920:1080:flags=bicubic[main];[1:v]settb=AVTB,setpts=PTS-STARTPTS,format=pix_fmts=yuv420p,fps=24000/1001,scale=1920:1080:flags=bicubic[ref];[main][ref]psnr=eof_action=endall:stats_file='D\\:/Convert/FFMetrics/logs/psnr_logfile-6.txt'" -f null -
Input #0, matroska,webm, from 'G:\Аниме\Онгоинги\!_34_Весна_2024\DreamCast\Мой сосед-ёкай\[DC] Tonari no Youkai-san - 11_Telegram_HEVC.mkv':
  Metadata:
    COMPATIBLE_BRANDS: isomiso2avc1mp41
    MAJOR_BRAND     : isom
    MINOR_VERSION   : 512
    ENCODER         : Lavf61.7.100
  Duration: 00:23:46.73, start: -0.021000, bitrate: 941 kb/s
  Stream #0:0: Video: hevc (Main 10), yuv420p10le(tv, bt709, progressive), 1920x1080 [SAR 1:1 DAR 16:9], 23.98 fps, 23.98 tbr, 1k tbn (default)
      Metadata:
        HANDLER_NAME    : VideoHandler
        VENDOR_ID       : [0][0][0][0]
        ENCODER         : Lavc61.19.100 libx265
        BPS             : 743950
        DURATION        : 00:23:46.549708333
        NUMBER_OF_FRAMES: 34203
        NUMBER_OF_BYTES : 132660189
        _STATISTICS_WRITING_APP: mkvpropedit v66.0.0 ('Josie') 64-bit
        _STATISTICS_WRITING_DATE_UTC: 2025-05-26 14:24:33
        _STATISTICS_TAGS: BPS DURATION NUMBER_OF_FRAMES NUMBER_OF_BYTES
  Stream #0:1: Audio: aac (LC), 48000 Hz, stereo, fltp (default)
      Metadata:
        HANDLER_NAME    : SoundHandler
        VENDOR_ID       : [0][0][0][0]
        ENCODER         : Lavc61.19.100 aac
        BPS             : 193237
        DURATION        : 00:23:46.730000000
        NUMBER_OF_FRAMES: 66879
        NUMBER_OF_BYTES : 34462139
        _STATISTICS_WRITING_APP: mkvpropedit v66.0.0 ('Josie') 64-bit
        _STATISTICS_WRITING_DATE_UTC: 2025-05-26 14:24:33
        _STATISTICS_TAGS: BPS DURATION NUMBER_OF_FRAMES NUMBER_OF_BYTES
Input #1, mov,mp4,m4a,3gp,3g2,mj2, from 'G:\Аниме\Онгоинги\!_34_Весна_2024\DreamCast\Мой сосед-ёкай\[DC] Tonari no Youkai-san - 11_Telegram.mp4':
  Metadata:
    major_brand     : isom
    minor_version   : 512
    compatible_brands: isomiso2avc1mp41
    encoder         : Lavf60.16.100
  Duration: 00:23:46.68, start: 0.000000, bitrate: 3601 kb/s
  Stream #1:0[0x1](und): Video: h264 (High) (avc1 / 0x31637661), yuv420p(tv, bt709, progressive), 1920x1080 [SAR 1:1 DAR 16:9], 3453 kb/s, 23.98 fps, 23.98 tbr, 24k tbn (default)
      Metadata:
        handler_name    : VideoHandler
        vendor_id       : [0][0][0][0]
        encoder         : Lavc60.31.102 h264_qsv
  Stream #1:1[0x2](und): Audio: aac (HE-AACv2) (mp4a / 0x6134706D), 48000 Hz, stereo, fltp, 144 kb/s (default)
      Metadata:
        handler_name    : SoundHandler
        vendor_id       : [0][0][0][0]
Stream mapping:
  Stream #0:0 (hevc) -> settb:default
  Stream #1:0 (h264) -> settb:default
  psnr:default -> Stream #0:0 (wrapped_avframe)
  Stream #0:1 -> #0:1 (aac (native) -> pcm_s16le (native))
Output #0, null, to 'pipe:':
  Metadata:
    COMPATIBLE_BRANDS: isomiso2avc1mp41
    MAJOR_BRAND     : isom
    MINOR_VERSION   : 512
    encoder         : Lavf61.7.100
  Stream #0:0: Video: wrapped_avframe, yuv420p10le(tv, bt709, progressive), 1920x1080 [SAR 1:1 DAR 16:9], q=2-31, 200 kb/s, 23.98 fps, 23.98 tbn
      Metadata:
        encoder         : Lavc61.19.100 wrapped_avframe
  Stream #0:1: Audio: pcm_s16le, 48000 Hz, stereo, s16, 1536 kb/s (default)
      Metadata:
        HANDLER_NAME    : SoundHandler
        VENDOR_ID       : [0][0][0][0]
        _STATISTICS_TAGS: BPS DURATION NUMBER_OF_FRAMES NUMBER_OF_BYTES
        BPS             : 193237
        DURATION        : 00:23:46.730000000
        NUMBER_OF_FRAMES: 66879
        NUMBER_OF_BYTES : 34462139
        _STATISTICS_WRITING_APP: mkvpropedit v66.0.0 ('Josie') 64-bit
        _STATISTICS_WRITING_DATE_UTC: 2025-05-26 14:24:33
        encoder         : Lavc61.19.100 pcm_s16le
frame=  182 fps=0.0 q=-0.0 size=N/A time=00:00:07.59 bitrate=N/A speed=14.6x    frame=  372 fps=362 q=-0.0 size=N/A time=00:00:15.51 bitrate=N/A speed=15.1x    frame=  594 fps=383 q=-0.0 size=N/A time=00:00:24.77 bitrate=N/A speed=  16x    frame=  794 fps=385 q=-0.0 size=N/A time=00:00:33.11 bitrate=N/A speed=16.1x    frame= 1027 fps=398 q=-0.0 size=N/A time=00:00:42.83 bitrate=N/A speed=16.6x    frame= 1231 fps=398 q=-0.0 size=N/A time=00:00:51.34 bitrate=N/A speed=16.6x    frame= 1435 fps=398 q=-0.0 size=N/A time=00:00:59.85 bitrate=N/A speed=16.6x    frame= 1630 fps=395 q=-0.0 size=N/A time=00:01:07.98 bitrate=N/A speed=16.5x    frame= 1855 fps=400 q=-0.0 size=N/A time=00:01:17.36 bitrate=N/A speed=16.7x    frame= 2054 fps=399 q=-0.0 size=N/A time=00:01:25.66 bitrate=N/A speed=16.6x    frame= 2295 fps=405 q=-0.0 size=N/A time=00:01:35.72 bitrate=N/A speed=16.9x    frame= 2568 fps=415 q=-0.0 size=N/A time=00:01:47.10 bitrate=N/A speed=17.3x    frame= 2831 fps=422 q=-0.0 size=N/A time=00:01:58.07 bitrate=N/A speed=17.6x    frame= 3103 fps=429 q=-0.0 size=N/A time=00:02:09.42 bitrate=N/A speed=17.9x    frame= 3337 fps=431 q=-0.0 size=N/A time=00:02:19.18 bitrate=N/A speed=  18x    frame= 3603 fps=436 q=-0.0 size=N/A time=00:02:30.27 bitrate=N/A speed=18.2x    frame= 3861 fps=441 q=-0.0 size=N/A time=00:02:41.03 bitrate=N/A speed=18.4x    frame= 4084 fps=440 q=-0.0 size=N/A time=00:02:50.33 bitrate=N/A speed=18.4x    frame= 4346 fps=443 q=-0.0 size=N/A time=00:03:01.26 bitrate=N/A speed=18.5x    frame= 4591 fps=445 q=-0.0 size=N/A time=00:03:11.48 bitrate=N/A speed=18.6x    frame= 4850 fps=448 q=-0.0 size=N/A time=00:03:22.28 bitrate=N/A speed=18.7x    frame= 5083 fps=448 q=-0.0 size=N/A time=00:03:32.00 bitrate=N/A speed=18.7x    frame= 5319 fps=449 q=-0.0 size=N/A time=00:03:41.84 bitrate=N/A speed=18.7x    frame= 5581 fps=451 q=-0.0 size=N/A time=00:03:52.77 bitrate=N/A speed=18.8x    frame= 5799 fps=450 q=-0.0 size=N/A time=00:04:01.86 bitrate=N/A speed=18.8x    frame= 6038 fps=450 q=-0.0 size=N/A time=00:04:11.83 bitrate=N/A speed=18.8x    frame= 6295 fps=452 q=-0.0 size=N/A time=00:04:22.55 bitrate=N/A speed=18.8x    frame= 6538 fps=453 q=-0.0 size=N/A time=00:04:32.68 bitrate=N/A speed=18.9x    frame= 6788 fps=454 q=-0.0 size=N/A time=00:04:43.11 bitrate=N/A speed=18.9x    frame= 7036 fps=455 q=-0.0 size=N/A time=00:04:53.45 bitrate=N/A speed=  19x    frame= 7317 fps=458 q=-0.0 size=N/A time=00:05:05.17 bitrate=N/A speed=19.1x    frame= 7559 fps=458 q=-0.0 size=N/A time=00:05:15.27 bitrate=N/A speed=19.1x    frame= 7825 fps=460 q=-0.0 size=N/A time=00:05:26.36 bitrate=N/A speed=19.2x    frame= 8088 fps=461 q=-0.0 size=N/A time=00:05:37.33 bitrate=N/A speed=19.2x    frame= 8337 fps=462 q=-0.0 size=N/A time=00:05:47.72 bitrate=N/A speed=19.3x    frame= 8595 fps=463 q=-0.0 size=N/A time=00:05:58.48 bitrate=N/A speed=19.3x    frame= 8846 fps=464 q=-0.0 size=N/A time=00:06:08.95 bitrate=N/A speed=19.3x    frame= 9128 fps=466 q=-0.0 size=N/A time=00:06:20.71 bitrate=N/A speed=19.4x    frame= 9406 fps=468 q=-0.0 size=N/A time=00:06:32.30 bitrate=N/A speed=19.5x    frame= 9665 fps=469 q=-0.0 size=N/A time=00:06:43.11 bitrate=N/A speed=19.5x    frame= 9904 fps=468 q=-0.0 size=N/A time=00:06:53.07 bitrate=N/A speed=19.5x    frame=10132 fps=468 q=-0.0 size=N/A time=00:07:02.58 bitrate=N/A speed=19.5x    frame=10350 fps=467 q=-0.0 size=N/A time=00:07:11.68 bitrate=N/A speed=19.5x    frame=10612 fps=468 q=-0.0 size=N/A time=00:07:22.60 bitrate=N/A speed=19.5x    frame=10875 fps=469 q=-0.0 size=N/A time=00:07:33.57 bitrate=N/A speed=19.6x    frame=11154 fps=470 q=-0.0 size=N/A time=00:07:45.21 bitrate=N/A speed=19.6x    frame=11396 fps=470 q=-0.0 size=N/A time=00:07:55.30 bitrate=N/A speed=19.6x    frame=11567 fps=467 q=-0.0 size=N/A time=00:08:02.44 bitrate=N/A speed=19.5x    frame=11764 fps=466 q=-0.0 size=N/A time=00:08:10.65 bitrate=N/A speed=19.4x    frame=12020 fps=466 q=-0.0 size=N/A time=00:08:21.33 bitrate=N/A speed=19.4x    frame=12255 fps=466 q=-0.0 size=N/A time=00:08:31.13 bitrate=N/A speed=19.4x    frame=12469 fps=465 q=-0.0 size=N/A time=00:08:40.06 bitrate=N/A speed=19.4x    frame=12676 fps=464 q=-0.0 size=N/A time=00:08:48.69 bitrate=N/A speed=19.3x    frame=12936 fps=465 q=-0.0 size=N/A time=00:08:59.53 bitrate=N/A speed=19.4x    frame=13175 fps=464 q=-0.0 size=N/A time=00:09:09.50 bitrate=N/A speed=19.4x    frame=13447 fps=466 q=-0.0 size=N/A time=00:09:20.85 bitrate=N/A speed=19.4x    frame=13715 fps=467 q=-0.0 size=N/A time=00:09:32.02 bitrate=N/A speed=19.5x    frame=13970 fps=467 q=-0.0 size=N/A time=00:09:42.66 bitrate=N/A speed=19.5x    frame=14225 fps=468 q=-0.0 size=N/A time=00:09:53.30 bitrate=N/A speed=19.5x    frame=14482 fps=468 q=-0.0 size=N/A time=00:10:04.02 bitrate=N/A speed=19.5x    frame=14698 fps=467 q=-0.0 size=N/A time=00:10:13.02 bitrate=N/A speed=19.5x    frame=14892 fps=466 q=-0.0 size=N/A time=00:10:21.12 bitrate=N/A speed=19.4x    frame=15088 fps=465 q=-0.0 size=N/A time=00:10:29.29 bitrate=N/A speed=19.4x    frame=15344 fps=465 q=-0.0 size=N/A time=00:10:39.97 bitrate=N/A speed=19.4x    frame=15562 fps=464 q=-0.0 size=N/A time=00:10:49.06 bitrate=N/A speed=19.4x    frame=15766 fps=463 q=-0.0 size=N/A time=00:10:57.57 bitrate=N/A speed=19.3x    frame=16000 fps=463 q=-0.0 size=N/A time=00:11:07.33 bitrate=N/A speed=19.3x    frame=16263 fps=464 q=-0.0 size=N/A time=00:11:18.30 bitrate=N/A speed=19.3x    frame=16523 fps=464 q=-0.0 size=N/A time=00:11:29.14 bitrate=N/A speed=19.4x    frame=16684 fps=462 q=-0.0 size=N/A time=00:11:35.86 bitrate=N/A speed=19.3x    frame=16866 fps=461 q=-0.0 size=N/A time=00:11:43.45 bitrate=N/A speed=19.2x    frame=17099 fps=461 q=-0.0 size=N/A time=00:11:53.17 bitrate=N/A speed=19.2x    frame=17379 fps=462 q=-0.0 size=N/A time=00:12:04.84 bitrate=N/A speed=19.3x    frame=17648 fps=462 q=-0.0 size=N/A time=00:12:16.06 bitrate=N/A speed=19.3x    frame=17916 fps=463 q=-0.0 size=N/A time=00:12:27.24 bitrate=N/A speed=19.3x    frame=18194 fps=464 q=-0.0 size=N/A time=00:12:38.84 bitrate=N/A speed=19.4x    frame=18456 fps=465 q=-0.0 size=N/A time=00:12:49.76 bitrate=N/A speed=19.4x    frame=18731 fps=466 q=-0.0 size=N/A time=00:13:01.23 bitrate=N/A speed=19.4x    frame=18999 fps=466 q=-0.0 size=N/A time=00:13:12.41 bitrate=N/A speed=19.5x    frame=19259 fps=467 q=-0.0 size=N/A time=00:13:23.26 bitrate=N/A speed=19.5x    frame=19517 fps=467 q=-0.0 size=N/A time=00:13:34.02 bitrate=N/A speed=19.5x    frame=19812 fps=468 q=-0.0 size=N/A time=00:13:46.32 bitrate=N/A speed=19.5x    frame=20080 fps=469 q=-0.0 size=N/A time=00:13:57.50 bitrate=N/A speed=19.6x    frame=20340 fps=470 q=-0.0 size=N/A time=00:14:08.34 bitrate=N/A speed=19.6x    frame=20569 fps=469 q=-0.0 size=N/A time=00:14:17.89 bitrate=N/A speed=19.6x    frame=20850 fps=470 q=-0.0 size=N/A time=00:14:29.61 bitrate=N/A speed=19.6x    frame=21111 fps=471 q=-0.0 size=N/A time=00:14:40.50 bitrate=N/A speed=19.6x    frame=21387 fps=471 q=-0.0 size=N/A time=00:14:52.01 bitrate=N/A speed=19.7x    frame=21657 fps=472 q=-0.0 size=N/A time=00:15:03.27 bitrate=N/A speed=19.7x    frame=21941 fps=473 q=-0.0 size=N/A time=00:15:15.12 bitrate=N/A speed=19.7x    frame=22206 fps=473 q=-0.0 size=N/A time=00:15:26.17 bitrate=N/A speed=19.7x    frame=22458 fps=473 q=-0.0 size=N/A time=00:15:36.68 bitrate=N/A speed=19.7x    frame=22733 fps=474 q=-0.0 size=N/A time=00:15:48.15 bitrate=N/A speed=19.8x    frame=23010 fps=475 q=-0.0 size=N/A time=00:15:59.70 bitrate=N/A speed=19.8x    frame=23287 fps=475 q=-0.0 size=N/A time=00:16:11.26 bitrate=N/A speed=19.8x    frame=23555 fps=476 q=-0.0 size=N/A time=00:16:22.43 bitrate=N/A speed=19.8x    frame=23834 fps=477 q=-0.0 size=N/A time=00:16:34.07 bitrate=N/A speed=19.9x    frame=24107 fps=477 q=-0.0 size=N/A time=00:16:45.46 bitrate=N/A speed=19.9x    frame=24384 fps=478 q=-0.0 size=N/A time=00:16:57.01 bitrate=N/A speed=19.9x    frame=24666 fps=478 q=-0.0 size=N/A time=00:17:08.77 bitrate=N/A speed=  20x    frame=24915 fps=478 q=-0.0 size=N/A time=00:17:19.16 bitrate=N/A speed=  20x    frame=25172 fps=479 q=-0.0 size=N/A time=00:17:29.88 bitrate=N/A speed=  20x    frame=25439 fps=479 q=-0.0 size=N/A time=00:17:41.01 bitrate=N/A speed=  20x    frame=25722 fps=480 q=-0.0 size=N/A time=00:17:52.82 bitrate=N/A speed=  20x    frame=25992 fps=480 q=-0.0 size=N/A time=00:18:04.08 bitrate=N/A speed=  20x    frame=26243 fps=480 q=-0.0 size=N/A time=00:18:14.55 bitrate=N/A speed=  20x    frame=26454 fps=479 q=-0.0 size=N/A time=00:18:23.35 bitrate=N/A speed=  20x    frame=26712 fps=480 q=-0.0 size=N/A time=00:18:34.11 bitrate=N/A speed=  20x    frame=26973 fps=480 q=-0.0 size=N/A time=00:18:44.99 bitrate=N/A speed=  20x    frame=27240 fps=480 q=-0.0 size=N/A time=00:18:56.13 bitrate=N/A speed=  20x    frame=27498 fps=480 q=-0.0 size=N/A time=00:19:06.89 bitrate=N/A speed=  20x    frame=27754 fps=481 q=-0.0 size=N/A time=00:19:17.57 bitrate=N/A speed=  20x    frame=27977 fps=480 q=-0.0 size=N/A time=00:19:26.87 bitrate=N/A speed=  20x    frame=28255 fps=481 q=-0.0 size=N/A time=00:19:38.46 bitrate=N/A speed=  20x    frame=28503 fps=481 q=-0.0 size=N/A time=00:19:48.81 bitrate=N/A speed=  20x    frame=28751 fps=481 q=-0.0 size=N/A time=00:19:59.15 bitrate=N/A speed=  20x    frame=28986 fps=480 q=-0.0 size=N/A time=00:20:08.99 bitrate=N/A speed=  20x    frame=29214 fps=480 q=-0.0 size=N/A time=00:20:18.46 bitrate=N/A speed=  20x    frame=29455 fps=480 q=-0.0 size=N/A time=00:20:28.51 bitrate=N/A speed=  20x    frame=29725 fps=480 q=-0.0 size=N/A time=00:20:39.78 bitrate=N/A speed=  20x    frame=29939 fps=480 q=-0.0 size=N/A time=00:20:48.70 bitrate=N/A speed=  20x    frame=30171 fps=480 q=-0.0 size=N/A time=00:20:58.38 bitrate=N/A speed=  20x    frame=30418 fps=480 q=-0.0 size=N/A time=00:21:08.68 bitrate=N/A speed=  20x    frame=30691 fps=480 q=-0.0 size=N/A time=00:21:20.07 bitrate=N/A speed=  20x    frame=30908 fps=480 q=-0.0 size=N/A time=00:21:29.12 bitrate=N/A speed=  20x    frame=31166 fps=480 q=-0.0 size=N/A time=00:21:39.88 bitrate=N/A speed=  20x    frame=31408 fps=480 q=-0.0 size=N/A time=00:21:49.97 bitrate=N/A speed=  20x    frame=31615 fps=479 q=-0.0 size=N/A time=00:21:58.60 bitrate=N/A speed=  20x    frame=31823 fps=478 q=-0.0 size=N/A time=00:22:07.28 bitrate=N/A speed=  20x    frame=32014 fps=478 q=-0.0 size=N/A time=00:22:15.25 bitrate=N/A speed=19.9x    frame=32280 fps=478 q=-0.0 size=N/A time=00:22:26.34 bitrate=N/A speed=19.9x    frame=32552 fps=478 q=-0.0 size=N/A time=00:22:37.68 bitrate=N/A speed=19.9x    frame=32836 fps=479 q=-0.0 size=N/A time=00:22:49.53 bitrate=N/A speed=  20x    frame=33119 fps=479 q=-0.0 size=N/A time=00:23:01.38 bitrate=N/A speed=  20x    frame=33389 fps=480 q=-0.0 size=N/A time=00:23:12.59 bitrate=N/A speed=  20x    frame=33614 fps=479 q=-0.0 size=N/A time=00:23:21.98 bitrate=N/A speed=  20x    frame=33806 fps=479 q=-0.0 size=N/A time=00:23:29.99 bitrate=N/A speed=  20x    frame=34039 fps=478 q=-0.0 size=N/A time=00:23:39.70 bitrate=N/A speed=  20x    [Parsed_psnr_10 @ 00000217e8cf2fc0] PSNR y:48.720533 u:50.870272 v:50.919632 average:49.331787 min:43.172753 max:inf
[out#0/null @ 00000217d2584e80] video:14697KiB audio:267516KiB subtitle:0KiB other streams:0KiB global headers:0KiB muxing overhead: unknown
frame=34203 fps=478 q=-0.0 Lsize=N/A time=00:23:46.55 bitrate=N/A speed=  20x    
